Coordinates
version=1
nRows=65
nColumns=12
inDegrees=yes

Units are S.I. units (second, meters, Newtons, ...)
Angles are in degrees

endheader
time	SC_y	SC_z	SC_x	AC_y	AC_z	AC_x	GH_y	GH_z	GH_yy	EL_x	PS_y
       0.0              -56.56          28.73          19.01          69.35          5.322          12.97         -76.14         -15.33         -82.33          131.0          151.4
   0.03458              -56.56          28.73          19.01          69.34          5.322          12.97         -76.14         -15.32         -82.33          131.0          151.4
   0.06917              -56.56          28.72          19.01          69.34          5.323          12.96         -76.13          -15.3         -82.32          130.9          151.4
    0.1038              -56.56          28.72          19.01          69.34          5.324          12.96         -76.12         -15.29         -82.32          130.9          151.4
    0.1383              -56.57          28.71          19.01          69.34          5.325          12.96         -76.12         -15.27         -82.32          130.9          151.4
    0.1729              -56.57          28.71          19.01          69.34          5.325          12.96         -76.11         -15.25         -82.32          130.9          151.4
    0.2075              -56.57           28.7           19.0          69.33          5.326          12.95          -76.1         -15.24         -82.31          130.9          151.4
    0.2421              -56.57          28.69           19.0          69.33          5.327          12.95          -76.1         -15.22         -82.31          130.8          151.4
    0.2767              -56.57          28.69           19.0          69.33          5.328          12.95         -76.09         -15.19         -82.31          130.8          151.4
    0.3113              -56.57          28.68           19.0          69.33          5.329          12.94         -76.08         -15.17          -82.3          130.8          151.3
    0.3458              -56.57          28.67           19.0          69.32           5.33          12.94         -76.07         -15.15          -82.3          130.7          151.3
    0.3804              -56.57          28.66          18.99          69.32          5.331          12.94         -76.06         -15.12         -82.29          130.7          151.3
     0.415              -56.57          28.65          18.99          69.32          5.332          12.93         -76.05         -15.09         -82.29          130.7          151.3
    0.4496              -56.57          28.64          18.99          69.31          5.334          12.93         -76.04         -15.06         -82.28          130.6          151.3
    0.4842              -56.57          28.63          18.99          69.31          5.335          12.92         -76.03         -15.02         -82.28          130.6          151.3
    0.5188              -56.57          28.61          18.98          69.31          5.337          12.92         -76.01         -14.99         -82.27          130.5          151.3
    0.5534              -56.57           28.6          18.98           69.3          5.338          12.91          -76.0         -14.95         -82.26          130.5          151.2
    0.5879              -56.57          28.59          18.98           69.3           5.34           12.9         -75.98          -14.9         -82.26          130.4          151.2
    0.6225              -56.58          28.57          18.97          69.29          5.342          12.89         -75.96         -14.86         -82.25          130.4          151.2
    0.6571              -56.58          28.55          18.97          69.29          5.345          12.89         -75.94         -14.81         -82.24          130.3          151.2
    0.6917              -56.58          28.53          18.96          69.28          5.347          12.88         -75.92         -14.75         -82.23          130.3          151.1
    0.7263              -56.58          28.51          18.96          69.27           5.35          12.87          -75.9         -14.69         -82.22          130.2          151.1
    0.7609              -56.58          28.49          18.95          69.26          5.353          12.86         -75.87         -14.62         -82.21          130.1          151.1
    0.7955              -56.58          28.46          18.94          69.25          5.356          12.85         -75.84         -14.54          -82.2          130.0          151.0
      0.83              -56.59          28.43          18.94          69.24           5.36          12.83         -75.81         -14.45         -82.18          129.9          151.0
    0.8646              -56.59           28.4          18.93          69.23          5.364          12.82         -75.78         -14.36         -82.17          129.8          151.0
    0.8992              -56.59          28.36          18.92          69.22          5.368           12.8         -75.74         -14.25         -82.15          129.6          150.9
    0.9338              -56.59          28.32          18.91          69.21          5.374          12.78         -75.69         -14.13         -82.13          129.5          150.8
    0.9684               -56.6          28.27           18.9          69.19          5.379          12.76         -75.64          -14.0          -82.1          129.3          150.8
     1.003               -56.6          28.22          18.88          69.17          5.386          12.74         -75.59         -13.84         -82.08          129.1          150.7
     1.038              -56.61          28.15          18.87          69.15          5.394          12.71         -75.52         -13.67         -82.05          128.9          150.6
     1.072              -56.61          28.08          18.85          69.13          5.402          12.68         -75.44         -13.46         -82.02          128.7          150.5
     1.107              -56.62           28.0          18.83           69.1          5.412          12.64         -75.36         -13.23         -81.98          128.4          150.4
     1.141              -56.62          27.91           18.8          69.07          5.424           12.6         -75.26         -12.96         -81.93          128.0          150.3
     1.176              -56.63           27.8          18.78          69.04          5.438          12.55         -75.14         -12.64         -81.88          127.7          150.1
      1.21              -56.64          27.67          18.74          68.99          5.454          12.49          -75.0         -12.27         -81.82          127.2          150.0
     1.245              -56.65          27.51           18.7          68.94          5.473          12.43         -74.83         -11.83         -81.74          126.6          149.7
      1.28              -56.67          27.33          18.66          68.88          5.496          12.34         -74.64         -11.29         -81.65          126.0          149.5
     1.314              -56.68           27.1           18.6          68.81          5.523          12.24          -74.4         -10.65         -81.55          125.2          149.2
     1.349               -56.7          26.83          18.53          68.72          5.557          12.12          -74.1         -9.865         -81.41          124.2          148.8
     1.383              -56.73          26.49          18.45          68.61          5.599          11.97         -73.74         -8.894         -81.25          123.0          148.3
     1.418              -56.76          26.07          18.34          68.47          5.651          11.78         -73.29         -7.684         -81.05          121.5          147.8
     1.453               -56.8          25.54          18.21          68.29          5.716          11.55         -72.73          -6.16         -80.79          119.6          147.0
     1.487              -56.85          24.86          18.04          68.07            5.8          11.25          -72.0         -4.222         -80.47          117.2          146.1
     1.522              -56.91           24.0          17.82          67.79          5.906          10.87         -71.08         -1.742         -80.06          114.2          144.9
     1.556               -57.0          22.89          17.54          67.42          6.043          10.37          -69.9          1.441         -79.52          110.2          143.4
     1.591               -57.1          21.48          17.18          66.95          6.218          9.744         -68.38          5.506         -78.84          105.2          141.4
     1.625              -57.23          19.69          16.73          66.37          6.438          8.953         -66.48          10.62         -77.99          98.89          139.0
      1.66              -57.39          17.52          16.18          65.65          6.706          7.989         -64.16          16.85         -76.95          91.18          136.0
     1.695              -57.58          15.01          15.55          64.82          7.016          6.871         -61.47          24.07         -75.74          82.26          132.6
     1.729              -57.78          12.29          14.86          63.93          7.353          5.661         -58.56          31.89         -74.43          72.59          128.8
     1.764              -57.98          9.562          14.17          63.03          7.689          4.451         -55.65          39.71         -73.13          62.92          125.1
     1.798              -58.17          7.047          13.53           62.2          7.999          3.334         -52.97          46.93         -71.92          53.99          121.6
     1.833              -58.33          4.877          12.99          61.49          8.267           2.37         -50.65          53.16         -70.88          46.29          118.6
     1.868              -58.46          3.096          12.54           60.9          8.487          1.579         -48.74          58.27         -70.02          39.97          116.2
     1.902              -58.56           1.68          12.18          60.43          8.662         0.9497         -47.23          62.33         -69.34          34.94          114.2
     1.937              -58.64         0.5713           11.9          60.07          8.799         0.4572         -46.05          65.52         -68.81          31.01          112.7
     1.971              -58.71        -0.2926          11.68          59.78          8.905        0.07336         -45.12           68.0          -68.4          27.94          111.5
     2.006              -58.76        -0.9676          11.51          59.56          8.989        -0.2265          -44.4          69.93         -68.07          25.54          110.6
     2.041               -58.8         -1.499          11.38          59.39          9.054        -0.4624         -43.83          71.46         -67.82          23.66          109.9
     2.075              -58.83          -1.92          11.27          59.25          9.106        -0.6496         -43.38          72.67         -67.62          22.16          109.3
      2.11              -58.85         -2.258          11.18          59.14          9.148        -0.7998         -43.02          73.64         -67.45          20.96          108.8
     2.144              -58.87         -2.532          11.11          59.04          9.182        -0.9214         -42.73          74.43         -67.32          19.99          108.4
     2.179              -58.89         -2.756          11.06          58.97          9.209         -1.021         -42.49          75.07         -67.21           19.2          108.1
     2.213               -58.9         -2.941          11.01          58.91          9.232         -1.103         -42.29           75.6         -67.12          18.54          107.9
